<svg data-name="Layer 1" xmlns="http://www.w3.org/2000/svg" viewBox="0 0 41.74 60.13"><path d="M20.89 60.12a1 1 0 0 1-.29 0l-.2-.06a33.26 33.26 0 0 1-14.13-9.51A26.65 26.65 0 0 1 .06 33.07V15.91a1 1 0 0 1 1-1h39.68a1 1 0 0 1 1 1v17.16c0 5.48-.66 11.84-5.54 17.43A33.43 33.43 0 0 1 21.36 60l-.21.06a1 1 0 0 1-.26.06zM2.06 16.91v16.16a24.65 24.65 0 0 0 5.7 16.11 31.18 31.18 0 0 0 13.13 8.89 31.3 31.3 0 0 0 13.79-8.89c4.45-5.09 5-11 5-16.11V16.91H2.06z" fill="#79b8ff"/><path d="M35.25 16.35a1 1 0 0 1-1-1 13.35 13.35 0 1 0-26.7 0 1 1 0 1 1-2 0 15.35 15.35 0 0 1 30.7 0 1 1 0 0 1-1 1z" fill="#79b8ff"/><path d="M28.91 16.47a1 1 0 0 1-1-1v-.82a7 7 0 1 0-14 0v.82a1 1 0 0 1-2 0v-.82a9 9 0 1 1 18 0v.82a1 1 0 0 1-1 1zm-16.85 11.3a1 1 0 0 1-.7-.29l-11-10.81a1 1 0 0 1 1.29-1.53l.11.11 11 10.81a1 1 0 0 1-.7 1.71zm23.39 23.07a1 1 0 0 1-.7-.29l-5.69-5.64a1 1 0 1 1 1.29-1.53l.11.11 5.7 5.62a1 1 0 0 1-.71 1.73z" fill="#79b8ff"/><path d="M20.9 44.13a8.63 8.63 0 1 1 8.63-8.63 8.63 8.63 0 0 1-8.63 8.63zm0-15.25a6.63 6.63 0 1 0 6.63 6.63 6.63 6.63 0 0 0-6.63-6.63z" fill="#2088ff"/><path d="M25.18 33.24l-.12-.24-.48-.49-.14-.14a.52.52 0 0 0-.38-.16.54.54 0 0 0-.38.2l-3.74 3.72a.2.2 0 0 1-.08.06.19.19 0 0 1-.08-.06l-1.6-1.63a.46.46 0 0 0-.65-.06l-.06.06-.17.16-.46.41-.14.15-.09.19v.21a.74.74 0 0 0 .1.14l2.71 2.81a.52.52 0 0 0 .37.19.54.54 0 0 0 .37-.18l4.9-4.78a1.07 1.07 0 0 0 .12-.16l.08-.17v-.12z" fill="#2088ff"/></svg>